<svg width="40" height="40" viewBox="0 0 40 40" fill="none" xmlns="http://www.w3.org/2000/svg">
<g id="40x40_call_to_action_v2">
<g id="40x40_CalltoAction">
<rect id="Rectangle" x="2.12" y="2" width="36" height="13.23" rx="2.3" fill="#EEEEEF"/>
<path id="Shape" fill-rule="evenodd" clip-rule="evenodd" d="M21.27 8.22C21.27 8.98768 20.6477 9.61 19.88 9.61C19.1123 9.61 18.49 8.98768 18.49 8.22V5.83C18.49 5.06233 19.1123 4.44 19.88 4.44C20.6477 4.44 21.27 5.06233 21.27 5.83V8.22ZM15.99 9.4C16.5423 9.95229 16.5423 10.8477 15.99 11.4C15.4377 11.9523 14.5423 11.9523 13.99 11.4L12.62 9.97C12.0677 9.41772 12.0677 8.52229 12.62 7.97C13.1723 7.41772 14.0677 7.41772 14.62 7.97L15.99 9.4ZM24.364 11.766C24.852 11.8968 25.3728 11.7573 25.73 11.4L27.12 10C27.6723 9.44772 27.6723 8.55229 27.12 8C26.5677 7.44772 25.6723 7.44772 25.12 8L23.73 9.4C23.3728 9.75727 23.2332 10.278 23.364 10.766C23.4948 11.2541 23.876 11.6353 24.364 11.766Z" fill="#F43939"/>
<path id="Path" d="M16.86 24.19L16.93 15.05C16.9325 14.2615 17.2517 13.507 17.8158 12.9561C18.3799 12.4052 19.1416 12.1039 19.93 12.12C21.567 12.167 22.883 13.483 22.93 15.12V20.55C23.8751 20.048 24.9426 19.8227 26.01 19.9C27.2007 19.9789 28.2837 20.6168 28.93 21.62C29.4685 21.3108 30.079 21.1487 30.7 21.15C32.6993 21.15 34.32 22.7707 34.32 24.77L34.39 31.22C34.39 32.8113 33.8147 34.0938 32.6894 35.219C31.5642 36.3442 29.9813 37 28.39 37H21.98C18.0418 36.9962 14.5468 34.6956 13.3 30.96L12.19 27.41C11.887 26.512 12.0354 25.523 12.5887 24.7536C13.142 23.9842 14.0323 23.5286 14.98 23.53C15.6658 23.5157 16.3336 23.7502 16.86 24.19Z" fill="white" stroke="#2B273C" stroke-width="2"/>
</g>
<path id="Path_2" d="M6 18L7.40821 20.5832L10 22L7.40821 23.4082L6 26L4.58315 23.4082L2 22L4.58315 20.5832L6 18Z" fill="#EEEEEF"/>
</g>
</svg>
